<svg xmlns="http://www.w3.org/2000/svg" xmlns:xlink="http://www.w3.org/1999/xlink" width="1366" height="560" viewBox="0 0 1366 560">
  <defs>
    <linearGradient id="linear-gradient" x1="0.215" x2="0.763" y2="1" gradientUnits="objectBoundingBox">
      <stop offset="0" stop-color="#468cff"/>
      <stop offset="1" stop-color="#176eff"/>
    </linearGradient>
    <clipPath id="clip-Recharge_Offers_3">
      <rect width="1366" height="560"/>
    </clipPath>
  </defs>
  <g id="Recharge_Offers_3" data-name="Recharge Offers – 3" clip-path="url(#clip-Recharge_Offers_3)">
    <rect width="1366" height="560" fill="#145BCD"/>
    <rect id="Rectangle_542" data-name="Rectangle 542" width="750" height="502" transform="translate(1335 531) rotate(180)" fill="none"/>
    <g id="Ellipse_745" data-name="Ellipse 745" transform="translate(-133 -156)" fill="none" stroke="#fcda22" stroke-width="2">
      <circle cx="218" cy="218" r="218" stroke="none"/>
      <circle cx="218" cy="218" r="217" fill="none"/>
    </g>
    <g id="Ellipse_755" data-name="Ellipse 755" transform="translate(-97 -261)" fill="none" stroke="#fff" stroke-width="2" opacity="0.443">
      <circle cx="218" cy="218" r="218" stroke="none"/>
      <circle cx="218" cy="218" r="217" fill="none"/>
    </g>
    <g id="Ellipse_750" data-name="Ellipse 750" transform="translate(1275 108)" fill="none" stroke="#fcda22" stroke-width="2">
      <circle cx="123" cy="123" r="123" stroke="none"/>
      <circle cx="123" cy="123" r="122" fill="none"/>
    </g>
    <g id="Ellipse_754" data-name="Ellipse 754" transform="translate(1287 141)" fill="none" stroke="#fcda22" stroke-width="2" opacity="0.252">
      <circle cx="123" cy="123" r="123" stroke="none"/>
      <circle cx="123" cy="123" r="122" fill="none"/>
    </g>
    <g id="Ellipse_751" data-name="Ellipse 751" transform="translate(-97 387)" fill="none" stroke="#fcda22" stroke-width="2">
      <circle cx="109" cy="109" r="109" stroke="none"/>
      <circle cx="109" cy="109" r="108" fill="none"/>
    </g>
    <g id="Ellipse_752" data-name="Ellipse 752" transform="translate(669 95)" fill="none" stroke="#fcda22" stroke-width="2">
      <circle cx="68" cy="68" r="68" stroke="none"/>
      <circle cx="68" cy="68" r="67" fill="none"/>
    </g>
    <g id="Ellipse_756" data-name="Ellipse 756" transform="translate(755 -68)" fill="none" stroke="#fff" stroke-width="2" opacity="0.216">
      <circle cx="68" cy="68" r="68" stroke="none"/>
      <circle cx="68" cy="68" r="67" fill="none"/>
    </g>
    <g id="Ellipse_753" data-name="Ellipse 753" transform="translate(816 -32)" fill="none" stroke="#fcda22" stroke-width="2">
      <circle cx="35.5" cy="35.5" r="35.5" stroke="none"/>
      <circle cx="35.5" cy="35.5" r="34.5" fill="none"/>
    </g>
    <path id="Path_1994" data-name="Path 1994" d="M-1282.075-21548.854c-146.654,29.975-139.524-196.346-336.489-213.473s-179.871,140.43-360.776,117.951-209.917,160.338-321.245,86.475-221.746,91.219-244.226,169.363,1021.489,0,1021.489,0l306.152-55.664Z" transform="translate(2989 21980)" fill="#1562de"/>
    <path id="Path_1994-2" data-name="Path 1994" d="M-1282.075-21548.854c-146.654,29.975-139.524-196.346-336.489-213.473s-179.871,140.43-360.776,117.951-173.849,215.682-285.177,141.818-126.363,345.506-148.842,423.65,890.037-309.631,890.037-309.631l306.152-55.664Z" transform="matrix(0.875, 0.485, -0.485, 0.875, -8076.736, 20320.971)" fill="#1c67e0"/>
    <g id="Group_499" data-name="Group 499" transform="translate(-564)">
      <g id="Group_497" data-name="Group 497" transform="translate(1225.048 643.897)">
        <g id="Group_473" data-name="Group 473">
          <g id="Group_469" data-name="Group 469">
            <g id="Group_468" data-name="Group 468">
              <path id="Path_4343" data-name="Path 4343" d="M600.03-166.212a4.4,4.4,0,0,1-1.529,2.445c-2.848,2.674-10.974,6.179-34.086,3.027-2.56-.35-5.3-.779-8.236-1.3l-1.15-5.744-.459-2.29s.849.194,2.3.473c8.239,1.582,35.994,5.981,40.108-5.717C596.983-175.32,602.282-170.716,600.03-166.212Z" fill="#e09913"/>
              <path id="Path_4344" data-name="Path 4344" d="M600.03-166.212a4.4,4.4,0,0,1-1.529,2.445,7.571,7.571,0,0,0,.164-3.626,2.739,2.739,0,0,0-3.482-1.955,11.588,11.588,0,0,0-2.3.916,35.964,35.964,0,0,1-20.405,2.8,36.21,36.21,0,0,0-5.29-.607c-1.551.009-3.582.316-4.753,1.429-1.249,1.187-.218,2.964,1.062,3.659a7.7,7.7,0,0,0,.922.411c-2.56-.35-5.3-.779-8.236-1.3l-1.15-5.744a13.783,13.783,0,0,1,1.846-1.817c8.239,1.582,35.994,5.981,40.108-5.717C596.983-175.32,602.282-170.716,600.03-166.212Z" fill="#d09e08"/>
              <g id="Group_467" data-name="Group 467">
                <path id="Path_4345" data-name="Path 4345" d="M601.424-170.064a35.944,35.944,0,0,1-1.287,3.6l-.108.252a6.953,6.953,0,0,0,.049-.934,6.949,6.949,0,0,0-.955-3.541c-.056-.1-.117-.195-.177-.291a10.568,10.568,0,0,0-3.036-3.009,15.846,15.846,0,0,0-3.746-1.868c-3.026-1.177-6.9-.6-9.871.03a47.347,47.347,0,0,0-13.89,5.843c-2.268,1.327-4.542,2.65-6.751,4.066-.148.1-.3.191-.449.293-.95.616-1.892,1.252-2.809,1.914-.188.134-.688.624-1.176,1.036-.427.361-.841.663-1.04.63l-1.089-.175-6.222-1.017-3.239-.526c.061.01.18-.067.33-.2.544-.468,1.512-1.617,1.73-1.826q1.074-1.047,2.164-2.07c.034-.031.066-.065.1-.1,1.549-1.45,3.132-2.861,4.77-4.209.35-.288.7-.568,1.056-.848a69.629,69.629,0,0,1,9.4-6.185,74.743,74.743,0,0,1,10.356-4.829c1.482-.54,2.978-1.012,4.5-1.4.275-.066.55-.136.829-.2.6-.142,1.2-.266,1.813-.382q.957-.176,1.929-.308l.415-.054c.262-.032.527-.064.787-.086.153-.018.3-.033.454-.044.22-.025.442-.042.664-.056.159-.01.318-.019.476-.026s.321-.015.476-.022c.321-.016.644-.024.959-.022.48-.007.954,0,1.432.031.145.006.294.016.439.022.26.017.517.038.768.065.192.013.382.034.571.061.241.026.48.058.715.1s.477.075.714.121.471.1.711.146.5.114.741.183c.154.04.3.082.454.125a13.707,13.707,0,0,1,4.634,2.172l.02.014a6.69,6.69,0,0,1,2.157,2.714c.035.092.075.181.1.279a1.177,1.177,0,0,1,.053.138c0,.019.011.041.016.06C603.433-177.072,602.393-173.285,601.424-170.064Z" fill="#ffc106"/>
                <path id="Path_4346" data-name="Path 4346" d="M602.2-174.458c-.031.142-.06.285-.082.43a2,2,0,0,0-.085-.98c-.092-.261-.314-.3-.512-.088a1.019,1.019,0,0,0-.2.4,10.73,10.73,0,0,0-.484,2.59c-.154.9-.218,1.817-.395,2.721a2.8,2.8,0,0,0-.28-1.142,5.448,5.448,0,0,0-.511-1.067,6.767,6.767,0,0,0-1.434-1.628c-.221-.181-1.487-1.354-1.764-1.153a4.675,4.675,0,0,0,1.151-1.352,7.043,7.043,0,0,0,1.1-4.034,4.612,4.612,0,0,0-.563-2,4.956,4.956,0,0,0-3.322-2.035,27.121,27.121,0,0,0-4.484-.8c-6.749-.54-13.449,1.873-19.538,4.481a25.225,25.225,0,0,0-3.609,1.658q-1.777.871-3.51,1.828c-2.285,1.261-7.151,3.8-7.151,3.8s2.232-1.728,3.269-2.469c1.107-.791,2.237-1.55,3.4-2.251a65.9,65.9,0,0,1,17.6-7.543c6.18-1.537,13.626-1.993,19.108,1.745.007,0,.012.009.018.011a5.562,5.562,0,0,1,2.062,2.6c.035.087.071.174.1.265.021.062.045.125.064.189a9.556,9.556,0,0,1,.39,3.118,16.148,16.148,0,0,1-.124,1.628C602.381-175.178,602.283-174.821,602.2-174.458Z" fill="#fff" opacity="0.2"/>
              </g>
            </g>
            <path id="Path_4347" data-name="Path 4347" d="M599.123-170.688c-.056-.1-.117-.195-.177-.291a10.568,10.568,0,0,0-3.036-3.009,15.846,15.846,0,0,0-3.746-1.868c-3.026-1.177-6.9-.6-9.871.03a47.347,47.347,0,0,0-13.89,5.843c-2.443,1.431-4.815,2.86-7.2,4.359-1.339.843-2.516,2.232-3.985,2.95a4.473,4.473,0,0,1-1.375.428,4.141,4.141,0,0,1-.754.027,11.16,11.16,0,0,1-1.324-.175q-2.448-.419-4.9-.842c-.764-.129-1.532-.259-2.3-.392-.234-.042-.5-.1-.6-.312l-.008-.019c.544-.468,1.512-1.617,1.73-1.826q1.074-1.047,2.164-2.07c.034-.031.066-.065.1-.1,1.549-1.45,3.132-2.861,4.77-4.209.35-.288.7-.568,1.056-.848a12.365,12.365,0,0,0,.72,2.806,3.73,3.73,0,0,0,1.31,2.013,4.845,4.845,0,0,0,3.069.787c1.651-.056,2.8-.9,4.147-1.708q1.565-.939,3.133-1.882a58.764,58.764,0,0,1,10.229-4.856c1.883-.683,3.849-1.183,5.763-1.77a14.18,14.18,0,0,0-4.957-.924c.724,0,1.5-.217,2.227-.27a22.565,22.565,0,0,1,2.355-.04,23.574,23.574,0,0,1,4.589.658,19.052,19.052,0,0,1,8.232,4.03,8.867,8.867,0,0,1,1.353,1.441A10.643,10.643,0,0,1,599.123-170.688Z" fill="#c27321" opacity="0.5"/>
            <path id="Path_4348" data-name="Path 4348" d="M600.138-166.463l-.108.251a6.945,6.945,0,0,0,.049-.934C600.106-166.918,600.126-166.692,600.138-166.463Z" fill="#fff" opacity="0.2"/>
            <path id="Path_4349" data-name="Path 4349" d="M572.524-164.025a57.539,57.539,0,0,0-6.532-.562c-.651.012-1.387.355-1.49.987a1.225,1.225,0,0,0,.54,1.125,3.513,3.513,0,0,0,1.218.5,51.236,51.236,0,0,0,20.745.735c1.978-.3,3.932-.735,5.868-1.23a10.015,10.015,0,0,0,3.06-1.082c.979-.641,1.575-2.277-.014-2.652a3.662,3.662,0,0,0-1.6.107,97.634,97.634,0,0,1-10.413,1.948,59.273,59.273,0,0,1-10.673.18Q572.875-163.992,572.524-164.025Z" fill="#fff" opacity="0.1"/>
          </g>
          <g id="Group_472" data-name="Group 472">
            <g id="Group_471" data-name="Group 471">
              <path id="Path_4350" data-name="Path 4350" d="M502.444-192.921a5.693,5.693,0,0,0-.136,3.751c1.133,4.939,7.4,14.541,34.9,27.554,3.046,1.44,6.347,2.923,9.931,4.443l5.485-5.439,2.187-2.169s-1.067-.393-2.859-1.125c-10.141-4.139-43.617-19.1-39.482-34.77C512.473-200.676,503.309-199.431,502.444-192.921Z" fill="#e09913"/>
              <path id="Path_4351" data-name="Path 4351" d="M502.444-192.921a5.693,5.693,0,0,0-.136,3.751,10.047,10.047,0,0,1,2.493-4.067,3.617,3.617,0,0,1,5.234.349,14.635,14.635,0,0,1,1.834,2.637,46.071,46.071,0,0,0,20.166,17.571,46.843,46.843,0,0,1,6.211,3.1c1.683,1.113,3.669,2.893,4.124,4.939.486,2.182-1.946,3.384-3.853,3.23a10.047,10.047,0,0,1-1.306-.208c3.046,1.44,6.347,2.923,9.931,4.443l5.485-5.439a17.668,17.668,0,0,0-.672-3.294c-10.141-4.139-43.617-19.1-39.482-34.77C512.473-200.676,503.309-199.431,502.444-192.921Z" fill="#d09e08"/>
              <g id="Group_470" data-name="Group 470">
                <path id="Path_4352" data-name="Path 4352" d="M503.762-198.109a47.073,47.073,0,0,0-1.251,4.836l-.067.352a9.081,9.081,0,0,1,.635-1.052,9.319,9.319,0,0,1,3.648-3.178c.135-.067.271-.129.408-.191a14.167,14.167,0,0,1,5.524-1.118,20.961,20.961,0,0,1,5.457.631c4.163.871,7.955,4.251,10.731,7.057,3.882,3.932,7.324,9.089,10.827,16.25,1.492,3.059,2.995,6.118,4.359,9.233.68,1.56,1.33,3.131,1.923,4.723.2.519.669,3.165,1.186,3.393l12.759,5.635c-.341-.149-.646-3.18-.754-3.67q-.4-1.9-.832-3.8c-.015-.058-.024-.117-.039-.175-.62-2.681-1.3-5.345-2.1-7.979a87.448,87.448,0,0,0-6.214-15.106,95,95,0,0,0-7.724-12.629,60.441,60.441,0,0,0-3.87-4.73c-.25-.268-.5-.54-.753-.809-.552-.583-1.117-1.147-1.7-1.706q-.914-.875-1.875-1.709c-.14-.122-.279-.239-.413-.354-.261-.221-.526-.445-.793-.654-.153-.128-.3-.25-.462-.37-.221-.184-.451-.361-.682-.534-.166-.124-.332-.248-.5-.367s-.338-.246-.5-.363c-.338-.245-.684-.484-1.028-.706-.518-.35-1.041-.677-1.583-.986-.162-.1-.331-.192-.494-.289-.3-.166-.591-.325-.885-.475q-.328-.183-.667-.339c-.281-.144-.566-.28-.852-.4s-.576-.258-.868-.377-.583-.231-.881-.347c-.314-.117-.625-.229-.942-.327-.2-.067-.392-.127-.587-.187a18.088,18.088,0,0,0-6.649-.932h-.031a8.991,8.991,0,0,0-4.349,1.421,3.666,3.666,0,0,0-.317.232,1.511,1.511,0,0,0-.16.112c-.019.018-.043.037-.061.055C506.735-207.173,505.078-202.307,503.762-198.109Z" fill="#ffc106"/>
                <path id="Path_4353" data-name="Path 4353" d="M506.152-203.452c-.07.178-.144.354-.227.528a2.656,2.656,0,0,1,.814-1.007c.292-.22.564-.106.622.268a1.307,1.307,0,0,1-.075.572,14.1,14.1,0,0,1-1.382,3.166c-.5,1.1-1.1,2.135-1.573,3.245.164-.385.815-.8,1.146-1.045a7.444,7.444,0,0,1,1.343-.8,9.048,9.048,0,0,1,2.761-.752c.374-.041,2.618-.417,2.771,0a6.011,6.011,0,0,1-.258-2.291,9.24,9.24,0,0,1,1.77-5.18,6.184,6.184,0,0,1,2.089-1.78c1.629-.824,3.477-.415,5.118.147a35.1,35.1,0,0,1,5.477,2.315c7.75,4.215,13.271,11.611,17.982,18.785a109.281,109.281,0,0,1,10.641,21.05c-.384-4.42-2.367-8.874-4.252-12.853A83.779,83.779,0,0,0,537.3-199.827c-5.6-6.072-13.374-11.868-22.1-11.7-.009,0-.019,0-.028,0a7.46,7.46,0,0,0-4.159,1.362c-.1.069-.2.138-.3.217-.068.052-.14.1-.209.161a12.782,12.782,0,0,0-2.721,3.118,21.292,21.292,0,0,0-1.064,1.862C506.489-204.362,506.332-203.9,506.152-203.452Z" fill="#fff" opacity="0.2"/>
              </g>
            </g>
            <path id="Path_4354" data-name="Path 4354" d="M509.506-198.53a14.381,14.381,0,0,0-2.779,1.379c.135-.067.271-.129.408-.191a14.167,14.167,0,0,1,5.524-1.118,20.961,20.961,0,0,1,5.457.631c4.163.871,7.955,4.251,10.731,7.057,3.882,3.932,7.324,9.089,10.827,16.25,1.492,3.059,2.995,6.118,4.359,9.233.68,1.56,1.33,3.131,1.923,4.723.2.519.669,3.165,1.186,3.393l12.759,5.635c-.341-.149-.646-3.18-.754-3.67q-.4-1.9-.832-3.8a4.453,4.453,0,0,1-2.865,2.83,5.633,5.633,0,0,1-3.424-.326,6.527,6.527,0,0,1-2.6-1.514c-2.079-2.317-3.146-5.606-4.452-8.37q-2.141-4.532-4.291-9.062a74.718,74.718,0,0,0-7.565-12.57c-1.547-2.084-3.319-4.028-4.973-6.032a18.466,18.466,0,0,1,6.082,2.526c-.792-.512-1.472-1.306-2.23-1.881a28.658,28.658,0,0,0-2.532-1.719,30.749,30.749,0,0,0-5.484-2.55,25.156,25.156,0,0,0-11.94-1.469A11.993,11.993,0,0,0,509.506-198.53Z" fill="#c27321" opacity="0.5"/>
            <path id="Path_4355" data-name="Path 4355" d="M502.511-193.273l-.067.352a9.081,9.081,0,0,1,.635-1.052C502.881-193.745,502.693-193.513,502.511-193.273Z" fill="#fff" opacity="0.2"/>
            <path id="Path_4356" data-name="Path 4356" d="M530.8-170.965a74.052,74.052,0,0,1,7.53,4.037,1.851,1.851,0,0,1,.9,2.134,1.647,1.647,0,0,1-1.417.842,4.652,4.652,0,0,1-1.7-.317c-8.639-2.825-16.448-7.966-23.141-13.964a76.308,76.308,0,0,1-5.485-5.515,12.739,12.739,0,0,1-2.537-3.356c-.594-1.394-.038-3.6,1.969-2.879a4.7,4.7,0,0,1,1.669,1.259,124.9,124.9,0,0,0,9.909,9.531,76.189,76.189,0,0,0,11.495,7.792Q530.389-171.179,530.8-170.965Z" fill="#fff" opacity="0.1"/>
          </g>
        </g>
        <g id="Group_496" data-name="Group 496">
          <g id="Group_474" data-name="Group 474">
            <path id="Path_4357" data-name="Path 4357" d="M560.721-130.464a.859.859,0,0,1-.045.235C560.689-130.307,560.705-130.386,560.721-130.464Z" fill="#b5651f"/>
          </g>
          <g id="Group_495" data-name="Group 495">
            <g id="Group_485" data-name="Group 485">
              <g id="Group_480" data-name="Group 480">
                <g id="Group_475" data-name="Group 475">
                  <path id="Path_4358" data-name="Path 4358" d="M597.7-134.738l-.015.044-19.3,64.128-13.322-.607-4.352-.2-9.4-.428-24.039-.292L540.549-150l24.9,6.647,3.215.86,9.31,2.488,1.158.309,6.06,1.619Z" fill="#176eff"/>
                  <path id="Path_4359" data-name="Path 4359" d="M541.313-145.982,528.849-72.821l-1.438-.064,12.518-73.478Z" fill="#fff" opacity="0.2"/>
                  <path id="Path_4360" data-name="Path 4360" d="M579.929-139.448l-18.11,68.054-14.578-.662,18.212-71.3Z" fill="#ffc106"/>
                </g>
                <g id="Group_479" data-name="Group 479" opacity="0.6">
                  <g id="Group_478" data-name="Group 478" opacity="0.2">
                    <g id="Group_477" data-name="Group 477">
                      <g id="Group_476" data-name="Group 476">
                        <path id="Path_4361" data-name="Path 4361" d="M597.7-134.738l-1.064,3.542L539.99-146.712l.56-3.286Z"/>
                      </g>
                    </g>
                  </g>
                </g>
                <path id="Path_4362" data-name="Path 4362" d="M561.818-71.394l16.569.828,17.869-59.609-2.211-.456-18,57.542Z" fill="#fff" opacity="0.2"/>
              </g>
              <g id="Group_484" data-name="Group 484">
                <g id="Group_483" data-name="Group 483">
                  <g id="Group_482" data-name="Group 482">
                    <g id="Group_481" data-name="Group 481">
                      <path id="Path_4363" data-name="Path 4363" d="M603.8-146.78l-4.108,12.627-1.952-.523-13.458-3.606-7.144-1.913-1.392-.373-8.41-2.254-.7-.187-2.8-.748-21.9-5.87L540.549-150l2.979-17.486,1.369.47,22.733,7.807,2.747.945.83.284,8.2,2.821,1.369.47,7.046,2.421,13.934,4.788Z" fill="#176eff"/>
                    </g>
                  </g>
                </g>
                <path id="Path_4364" data-name="Path 4364" d="M587.826-152.267l-3.546,13.985-7.144-1.913-1.392-.373-8.41-2.254,3.873-15.157,8.2,2.821,1.369.47Z" fill="#176eff"/>
                <path id="Path_4365" data-name="Path 4365" d="M587.825-152.267l-7.046-2.422-1.369-.469-8.2-2.821-.83-.284-2.747-.944L544.9-167.014h0l-1.369-.469-.338,1.986L540.549-150l1.385.371,2.412-14.155a1.084,1.084,0,0,1,1.426-.829l21.519,7.39,2.748.945.829.284,8.2,2.82,1.369.47,7.046,2.421,13.669,4.7L597.7-134.737l.041.061,1.952.522,3.493-10.736h0l.614-1.89Z" fill="#176eff" opacity="0.2"/>
              </g>
            </g>
            <g id="Group_494" data-name="Group 494">
              <path id="Path_4366" data-name="Path 4366" d="M540.549-150,527.276-72.091,515.066-76.88l-3.73-1.207-8.983-2.906-.215-.068-13.185-4.266,5.577-64.75.33-3.847,14.8,1.271.357.03,10.1.867,4.5.385Z" fill="#0b57d6"/>
              <path id="Path_4367" data-name="Path 4367" d="M515.052-76.778l-12.7-4.215-.215-.068-.914-.305,8.439-71.286,14.955,1.282L515.066-76.88Z" fill="#ffc106"/>
              <g id="Group_488" data-name="Group 488" opacity="0.5">
                <g id="Group_487" data-name="Group 487">
                  <g id="Group_486" data-name="Group 486" opacity="0.3">
                    <path id="Path_4368" data-name="Path 4368" d="M540.549-150l-.56,3.286-45.663-2.178.532-5.032Z"/>
                  </g>
                </g>
              </g>
              <g id="Group_493" data-name="Group 493">
                <g id="Group_492" data-name="Group 492">
                  <g id="Group_491" data-name="Group 491">
                    <g id="Group_490" data-name="Group 490">
                      <g id="Group_489" data-name="Group 489">
                        <path id="Path_4369" data-name="Path 4369" d="M543.528-167.485,540.549-150l-16.662-1.354-1.527-.122-.2-.015-.844-.071-9.742-.794-2.555-.208-1.321-.106-.249-.019L490.9-154.035l1.066-13.127,17.207-.106.253,0,1.168-.009,2.578-.018,10.023-.062,1-.005.205,0,1.4-.011Z" fill="#0b57d6"/>
                      </g>
                    </g>
                  </g>
                </g>
              </g>
              <path id="Path_4370" data-name="Path 4370" d="M522.158-151.49l-.844-.071-9.742-.794-2.555-.208-1.321-.106-.249-.019,1.727-14.579.253,0,1.168-.009,2.578-.018,10.023-.062,1-.005Z" fill="#ffc106"/>
            </g>
          </g>
        </g>
      </g>
      <g id="Group_498" data-name="Group 498" transform="translate(1792 411.007)">
        <g id="Group_473-2" data-name="Group 473" transform="translate(1.177 0)">
          <g id="Group_469-2" data-name="Group 469" transform="translate(0 30.294)">
            <g id="Group_468-2" data-name="Group 468" transform="translate(0)">
              <path id="Path_4343-2" data-name="Path 4343" d="M555.238-164.4a5.273,5.273,0,0,0,1.833,2.932c3.415,3.206,13.159,7.409,40.872,3.63,3.07-.42,6.355-.934,9.876-1.561l1.379-6.887.55-2.746s-1.018.233-2.764.567c-9.879,1.9-43.16,7.172-48.092-6.855C558.892-175.32,552.538-169.8,555.238-164.4Z" transform="translate(-551.897 188.877)" fill="#e09913"/>
              <path id="Path_4344-2" data-name="Path 4344" d="M555.7-164.4a5.273,5.273,0,0,0,1.833,2.932,9.078,9.078,0,0,1-.2-4.348,3.284,3.284,0,0,1,4.175-2.344,13.894,13.894,0,0,1,2.763,1.1,43.124,43.124,0,0,0,24.467,3.357,43.421,43.421,0,0,1,6.343-.728c1.86.011,4.3.379,5.7,1.713,1.5,1.423.261,3.554-1.273,4.387a9.232,9.232,0,0,1-1.106.493c3.07-.42,6.355-.934,9.876-1.561l1.379-6.887a16.526,16.526,0,0,0-2.214-2.179c-9.879,1.9-43.16,7.172-48.092-6.855C559.351-175.32,553-169.8,555.7-164.4Z" transform="translate(-552.356 188.877)" fill="#d09e08"/>
              <g id="Group_467-2" data-name="Group 467">
                <path id="Path_4345-2" data-name="Path 4345" d="M547.3-166.767a43.109,43.109,0,0,0,1.543,4.315l.13.3a8.33,8.33,0,0,1-.059-1.12,8.333,8.333,0,0,1,1.145-4.246c.067-.119.14-.234.212-.349a12.672,12.672,0,0,1,3.64-3.608,19,19,0,0,1,4.492-2.24c3.628-1.411,8.268-.723,11.836.036,4.993,1.066,10.284,3.287,16.655,7.006,2.72,1.591,5.446,3.178,8.1,4.875.177.118.36.229.538.351,1.139.739,2.269,1.5,3.368,2.3.225.161.825.748,1.41,1.242.512.433,1.008.795,1.247.755l1.306-.21,7.461-1.219,3.884-.631c-.073.012-.216-.08-.4-.236-.652-.561-1.813-1.939-2.074-2.19q-1.288-1.255-2.595-2.482c-.041-.037-.079-.078-.12-.114-1.857-1.739-3.755-3.431-5.72-5.047-.42-.345-.841-.681-1.266-1.017a83.493,83.493,0,0,0-11.277-7.416,89.626,89.626,0,0,0-12.418-5.79c-1.777-.648-3.571-1.213-5.4-1.681-.33-.079-.659-.163-.994-.241-.722-.17-1.444-.319-2.174-.458q-1.147-.21-2.313-.369l-.5-.065c-.314-.038-.632-.077-.944-.1-.183-.022-.362-.04-.544-.053-.264-.03-.53-.05-.8-.067-.191-.012-.381-.023-.571-.031s-.385-.018-.571-.026c-.385-.019-.772-.029-1.15-.026-.576-.008-1.144,0-1.717.037-.174.007-.353.019-.526.026-.312.02-.62.046-.921.078-.23.016-.458.041-.685.073-.289.031-.576.07-.857.12s-.572.09-.856.145-.565.115-.853.175-.595.137-.889.219c-.185.048-.365.1-.544.15a16.436,16.436,0,0,0-5.557,2.6l-.024.017a8.022,8.022,0,0,0-2.586,3.254c-.042.11-.09.217-.122.335a1.4,1.4,0,0,0-.064.165c0,.023-.013.049-.019.072C544.889-175.17,546.136-170.629,547.3-166.767Z" transform="translate(-545.628 186.626)" fill="#ffc106"/>
                <path id="Path_4346-2" data-name="Path 4346" d="M556.958-172.112c.037.17.072.342.1.516a2.4,2.4,0,0,1,.1-1.175c.11-.313.377-.362.614-.106a1.222,1.222,0,0,1,.237.475,12.867,12.867,0,0,1,.58,3.106c.185,1.084.261,2.179.474,3.263a3.363,3.363,0,0,1,.336-1.369,6.533,6.533,0,0,1,.613-1.279,8.114,8.114,0,0,1,1.719-1.952c.265-.217,1.783-1.624,2.115-1.383a5.605,5.605,0,0,1-1.38-1.621,8.444,8.444,0,0,1-1.323-4.837,5.53,5.53,0,0,1,.675-2.4c.819-1.441,2.44-2.05,3.983-2.44a32.521,32.521,0,0,1,5.377-.964c8.093-.647,16.126,2.246,23.427,5.373a30.247,30.247,0,0,1,4.328,1.988q2.131,1.045,4.209,2.192c2.74,1.512,8.575,4.552,8.575,4.552s-2.676-2.072-3.92-2.961c-1.327-.948-2.682-1.859-4.083-2.7a79.015,79.015,0,0,0-21.1-9.045c-7.41-1.843-16.339-2.39-22.912,2.092-.008,0-.014.011-.021.013a6.669,6.669,0,0,0-2.473,3.114c-.042.1-.085.209-.12.318-.025.074-.054.15-.077.227a11.458,11.458,0,0,0-.468,3.739,19.352,19.352,0,0,0,.149,1.952C556.744-172.975,556.862-172.547,556.958-172.112Z" transform="translate(-556.222 186.703)" fill="#fff" opacity="0.2"/>
              </g>
            </g>
            <path id="Path_4347-2" data-name="Path 4347" d="M545.958-169.06c.067-.119.14-.234.212-.349a12.671,12.671,0,0,1,3.64-3.608,19,19,0,0,1,4.492-2.24c3.628-1.411,8.268-.723,11.836.036,4.993,1.066,10.284,3.287,16.655,7.006,2.929,1.716,5.774,3.429,8.633,5.227,1.606,1.011,3.017,2.676,4.778,3.537a5.364,5.364,0,0,0,1.649.513,4.965,4.965,0,0,0,.9.032,13.384,13.384,0,0,0,1.588-.21q2.935-.5,5.873-1.01c.916-.155,1.837-.311,2.753-.47.281-.05.6-.125.725-.374l.01-.023c-.652-.561-1.813-1.939-2.074-2.19q-1.288-1.255-2.595-2.482c-.041-.037-.079-.078-.12-.114-1.857-1.739-3.755-3.431-5.72-5.047-.42-.345-.841-.681-1.266-1.017a14.83,14.83,0,0,1-.863,3.365,4.473,4.473,0,0,1-1.571,2.414,5.81,5.81,0,0,1-3.68.944c-1.98-.067-3.355-1.077-4.973-2.048q-1.876-1.126-3.757-2.257a70.462,70.462,0,0,0-12.265-5.823c-2.258-.819-4.615-1.418-6.91-2.122a17,17,0,0,1,5.944-1.108c-.868,0-1.8-.26-2.67-.324a27.063,27.063,0,0,0-2.824-.048,28.267,28.267,0,0,0-5.5.789,22.844,22.844,0,0,0-9.871,4.832,10.634,10.634,0,0,0-1.622,1.728A12.763,12.763,0,0,0,545.958-169.06Z" transform="translate(-541.529 188.171)" fill="#c27321" opacity="0.5"/>
            <path id="Path_4348-2" data-name="Path 4348" d="M600.03-166.327l.129.3a8.329,8.329,0,0,1-.059-1.12C600.068-166.873,600.044-166.6,600.03-166.327Z" transform="translate(-596.818 190.504)" fill="#fff" opacity="0.2"/>
            <path id="Path_4349-2" data-name="Path 4349" d="M593.72-163.581a68.991,68.991,0,0,1,7.832-.674c.781.014,1.663.426,1.787,1.183a1.469,1.469,0,0,1-.647,1.349,4.213,4.213,0,0,1-1.46.6c-8.053,2.152-16.67,2.122-24.875.881-2.372-.36-4.715-.881-7.036-1.475a12.007,12.007,0,0,1-3.669-1.3c-1.174-.769-1.889-2.73.017-3.18a4.391,4.391,0,0,1,1.924.128,117.075,117.075,0,0,0,12.486,2.336,71.071,71.071,0,0,0,12.8.216Q593.3-163.542,593.72-163.581Z" transform="translate(-557.397 190.682)" fill="#fff" opacity="0.1"/>
          </g>
          <g id="Group_472-2" data-name="Group 472" transform="translate(51.459)">
            <g id="Group_471-2" data-name="Group 471" transform="translate(0)">
              <path id="Path_4350-2" data-name="Path 4350" d="M564.883-191.377a6.826,6.826,0,0,1,.163,4.5c-1.358,5.922-8.876,17.436-41.851,33.039-3.652,1.727-7.611,3.5-11.908,5.327l-6.577-6.522-2.622-2.6s1.279-.471,3.428-1.349c12.16-4.963,52.3-22.9,47.342-41.692C552.858-200.676,563.846-199.183,564.883-191.377Z" transform="translate(-495.988 214.123)" fill="#e09913"/>
              <path id="Path_4351-2" data-name="Path 4351" d="M562.261-191.377a6.826,6.826,0,0,1,.163,4.5,12.047,12.047,0,0,0-2.989-4.877,4.337,4.337,0,0,0-6.276.418,17.547,17.547,0,0,0-2.2,3.162,55.243,55.243,0,0,1-24.181,21.069,56.168,56.168,0,0,0-7.447,3.721c-2.018,1.335-4.4,3.469-4.945,5.922-.583,2.616,2.333,4.058,4.62,3.873a12.051,12.051,0,0,0,1.566-.249c-3.652,1.727-7.611,3.5-11.908,5.327l-6.577-6.522a21.184,21.184,0,0,1,.806-3.95c12.16-4.963,52.3-22.9,47.342-41.692C550.236-200.676,561.224-199.183,562.261-191.377Z" transform="translate(-493.366 214.123)" fill="#d09e08"/>
              <g id="Group_470-2" data-name="Group 470" transform="translate(0)">
                <path id="Path_4352-2" data-name="Path 4352" d="M569.759-195.365a56.449,56.449,0,0,1,1.5,5.8l.08.422a10.867,10.867,0,0,0-.761-1.261,11.174,11.174,0,0,0-4.374-3.811c-.162-.08-.325-.155-.489-.229a16.987,16.987,0,0,0-6.624-1.341,25.134,25.134,0,0,0-6.543.757c-4.992,1.044-9.539,5.1-12.867,8.462-4.655,4.715-8.782,10.9-12.982,19.485-1.789,3.668-3.591,7.336-5.227,11.071-.815,1.871-1.595,3.754-2.306,5.663-.237.622-.8,3.8-1.422,4.068l-15.3,6.757c.409-.179.775-3.813.9-4.4q.477-2.282,1-4.551c.018-.07.029-.14.047-.21.743-3.215,1.565-6.409,2.513-9.567a104.856,104.856,0,0,1,7.451-18.113,113.917,113.917,0,0,1,9.262-15.143,72.478,72.478,0,0,1,4.64-5.672c.3-.321.6-.647.9-.97.662-.7,1.339-1.375,2.032-2.046q1.1-1.049,2.248-2.049c.168-.146.335-.287.5-.424.313-.265.631-.534.951-.784.184-.153.365-.3.554-.444.265-.221.541-.433.818-.64.2-.149.4-.3.6-.44s.405-.295.6-.435c.405-.294.82-.58,1.233-.847.621-.42,1.248-.812,1.9-1.182.194-.116.4-.23.592-.347.356-.2.709-.39,1.061-.57q.394-.219.8-.406c.337-.173.679-.336,1.022-.48s.691-.309,1.041-.452.7-.277,1.056-.416c.377-.14.749-.275,1.13-.392.236-.08.47-.152.7-.224a21.689,21.689,0,0,1,7.973-1.118h.037a10.781,10.781,0,0,1,5.215,1.7,4.377,4.377,0,0,1,.38.278,1.814,1.814,0,0,1,.192.134c.023.022.052.044.073.066C566.194-206.234,568.181-200.4,569.759-195.365Z" transform="translate(-502.444 211.891)" fill="#ffc106"/>
                <path id="Path_4353-2" data-name="Path 4353" d="M563.108-201.844c.084.213.173.424.272.633a3.183,3.183,0,0,0-.976-1.207c-.35-.264-.676-.127-.746.321a1.571,1.571,0,0,0,.09.686,16.9,16.9,0,0,0,1.657,3.8c.6,1.313,1.319,2.56,1.886,3.891-.2-.462-.977-.959-1.374-1.253a8.925,8.925,0,0,0-1.61-.957,10.851,10.851,0,0,0-3.311-.9c-.448-.049-3.139-.5-3.323,0a7.207,7.207,0,0,0,.309-2.747,11.079,11.079,0,0,0-2.122-6.211,7.416,7.416,0,0,0-2.5-2.134c-1.953-.988-4.169-.5-6.137.176a42.09,42.09,0,0,0-6.567,2.776c-9.293,5.054-15.913,13.922-21.562,22.525a131.034,131.034,0,0,0-12.759,25.241c.461-5.3,2.838-10.641,5.1-15.412A100.456,100.456,0,0,1,525.758-197.5c6.714-7.281,16.036-14.231,26.5-14.026.011,0,.023,0,.034,0a8.945,8.945,0,0,1,4.987,1.633c.124.083.246.165.366.26.081.062.168.125.251.193a15.325,15.325,0,0,1,3.263,3.739,25.494,25.494,0,0,1,1.276,2.233C562.7-202.936,562.893-202.385,563.108-201.844Z" transform="translate(-498.659 211.963)" fill="#fff" opacity="0.2"/>
              </g>
            </g>
            <path id="Path_4354-2" data-name="Path 4354" d="M567.154-198.37a17.242,17.242,0,0,1,3.332,1.654c-.162-.08-.325-.155-.489-.229a16.986,16.986,0,0,0-6.624-1.341,25.133,25.133,0,0,0-6.543.757c-4.992,1.044-9.539,5.1-12.867,8.462-4.655,4.715-8.782,10.9-12.982,19.485-1.789,3.668-3.591,7.336-5.227,11.071-.815,1.871-1.595,3.754-2.306,5.663-.237.622-.8,3.8-1.422,4.068l-15.3,6.757c.409-.179.775-3.813.9-4.4q.477-2.282,1-4.55a5.339,5.339,0,0,0,3.435,3.393,6.754,6.754,0,0,0,4.106-.391,7.827,7.827,0,0,0,3.116-1.815c2.493-2.778,3.772-6.722,5.338-10.036q2.567-5.434,5.145-10.866a89.607,89.607,0,0,1,9.071-15.072c1.855-2.5,3.98-4.83,5.963-7.233a22.142,22.142,0,0,0-7.293,3.029c.95-.614,1.765-1.566,2.674-2.255a34.375,34.375,0,0,1,3.036-2.061,36.869,36.869,0,0,1,6.576-3.058,30.165,30.165,0,0,1,14.317-1.761A14.382,14.382,0,0,1,567.154-198.37Z" transform="translate(-506.727 214.391)" fill="#c27321" opacity="0.5"/>
            <path id="Path_4355-2" data-name="Path 4355" d="M503.125-193.134l.08.422a10.894,10.894,0,0,0-.761-1.261C502.681-193.7,502.907-193.421,503.125-193.134Z" transform="translate(-434.31 215.458)" fill="#fff" opacity="0.2"/>
            <path id="Path_4356-2" data-name="Path 4356" d="M514.955-167.151a88.794,88.794,0,0,0-9.029,4.841,2.22,2.22,0,0,0-1.074,2.559,1.975,1.975,0,0,0,1.7,1.01,5.578,5.578,0,0,0,2.036-.38c10.359-3.387,19.722-9.552,27.748-16.744a91.505,91.505,0,0,0,6.577-6.613,15.273,15.273,0,0,0,3.042-4.024c.712-1.672.046-4.318-2.361-3.452a5.636,5.636,0,0,0-2,1.51,149.751,149.751,0,0,1-11.882,11.428,91.352,91.352,0,0,1-13.783,9.343Q515.444-167.407,514.955-167.151Z" transform="translate(-480.057 216.224)" fill="#fff" opacity="0.1"/>
          </g>
        </g>
        <g id="Group_496-2" data-name="Group 496" transform="translate(0 53.246)">
          <g id="Group_474-2" data-name="Group 474" transform="translate(51.653 44.391)">
            <path id="Path_4357-2" data-name="Path 4357" d="M560.676-130.464a1.029,1.029,0,0,0,.054.282C560.714-130.276,560.7-130.37,560.676-130.464Z" transform="translate(-560.676 130.464)" fill="#b5651f"/>
          </g>
          <g id="Group_495-2" data-name="Group 495" transform="translate(0)">
            <g id="Group_485-2" data-name="Group 485" transform="translate(0 0.001)">
              <g id="Group_480-2" data-name="Group 480" transform="translate(7.316 20.967)">
                <g id="Group_475-2" data-name="Group 475" transform="translate(0)">
                  <path id="Path_4358-2" data-name="Path 4358" d="M527.276-131.7l.018.053L550.43-54.752,566.4-55.48l5.219-.238,11.269-.514,28.825-.35L595.8-150l-29.86,7.97L562.086-141l-11.164,2.984-1.389.371-7.266,1.942Z" transform="translate(-527.276 149.999)" fill="#176eff"/>
                  <path id="Path_4359-2" data-name="Path 4359" d="M527.411-145.907l14.946,87.726,1.724-.077-15.01-88.106Z" transform="translate(-459.803 150.723)" fill="#fff" opacity="0.2"/>
                  <path id="Path_4360-2" data-name="Path 4360" d="M547.24-138.671l21.716,81.6,17.48-.794L564.6-143.352Z" transform="translate(-525.934 151.322)" fill="#ffc106"/>
                </g>
                <g id="Group_479-2" data-name="Group 479" transform="translate(0)" opacity="0.6">
                  <g id="Group_478-2" data-name="Group 478" opacity="0.2">
                    <g id="Group_477-2" data-name="Group 477">
                      <g id="Group_476-2" data-name="Group 476">
                        <path id="Path_4361-2" data-name="Path 4361" d="M539.99-131.7l1.276,4.248,67.92-18.606L608.514-150Z" transform="translate(-539.99 149.999)"/>
                      </g>
                    </g>
                  </g>
                </g>
                <path id="Path_4362-2" data-name="Path 4362" d="M603.112-59.6l-19.868.993-21.426-71.475,2.651-.547,21.588,69Z" transform="translate(-560.09 153.854)" fill="#fff" opacity="0.2"/>
              </g>
              <g id="Group_484-2" data-name="Group 484">
                <g id="Group_483-2" data-name="Group 483">
                  <g id="Group_482-2" data-name="Group 482" transform="translate(0)">
                    <g id="Group_481-2" data-name="Group 481">
                      <path id="Path_4363-2" data-name="Path 4363" d="M540.549-142.659l4.926,15.14,2.341-.627,16.138-4.324,8.566-2.293,1.67-.447,10.084-2.7.839-.224,3.352-.9,26.264-7.038,1.661-.446-3.572-20.967-1.641.563-27.259,9.362-3.294,1.133-.995.341-9.837,3.382-1.641.563-8.449,2.9L542.994-143.5Z" transform="translate(-540.549 167.484)" fill="#176eff"/>
                    </g>
                  </g>
                </g>
                <path id="Path_4364-2" data-name="Path 4364" d="M567.334-151.13l4.252,16.769,8.566-2.294,1.67-.447,10.084-2.7-4.645-18.174-9.837,3.382-1.641.563Z" transform="translate(-548.181 169.376)" fill="#ffc106"/>
                <path id="Path_4365-2" data-name="Path 4365" d="M559.7-149.238l8.449-2.9,1.642-.562,9.836-3.383,1-.341,3.294-1.132,27.259-9.361h0l1.641-.562.405,2.381,3.167,18.586-1.661.445-2.892-16.973a1.3,1.3,0,0,0-1.71-.994l-25.8,8.861-3.3,1.133-.994.341-9.837,3.381-1.641.564-8.449,2.9-16.39,5.63,4.148,13.009-.049.073-2.341.626-4.188-12.873h0l-.736-2.266Z" transform="translate(-540.548 167.484)" fill="#fff" opacity="0.2"/>
              </g>
            </g>
            <g id="Group_494-2" data-name="Group 494" transform="translate(72.268)">
              <path id="Path_4366-2" data-name="Path 4366" d="M488.952-149.218,504.867-55.8l14.642-5.743,4.473-1.447,10.772-3.484.258-.081,15.81-5.115-6.687-77.64-.4-4.612L525.988-152.4l-.428.036-12.1,1.039-5.4.462Z" transform="translate(-485.38 170.185)" fill="#0b57d6"/>
              <path id="Path_4367-2" data-name="Path 4367" d="M512.693-61.674l15.228-5.054.258-.081,1.1-.366-10.119-85.477-17.933,1.537L512.677-61.8Z" transform="translate(-478.547 170.438)" fill="#ffc106"/>
              <g id="Group_488-2" data-name="Group 488" transform="translate(3.572 16.262)" opacity="0.5">
                <g id="Group_487-2" data-name="Group 487" transform="translate(0)">
                  <g id="Group_486-2" data-name="Group 486" opacity="0.3">
                    <path id="Path_4368-2" data-name="Path 4368" d="M494.327-149.218l.671,3.941,54.753-2.611-.638-6.034Z" transform="translate(-494.327 153.923)"/>
                  </g>
                </g>
              </g>
              <g id="Group_493-2" data-name="Group 493" transform="translate(0)">
                <g id="Group_492-2" data-name="Group 492">
                  <g id="Group_491-2" data-name="Group 491">
                    <g id="Group_490-2" data-name="Group 490" transform="translate(0)">
                      <g id="Group_489-2" data-name="Group 489">
                        <path id="Path_4369-2" data-name="Path 4369" d="M490.9-167.485l3.572,20.967,19.979-1.624,1.831-.146.242-.018,1.012-.085,11.681-.952,3.063-.25,1.584-.127.3-.023,19.841-1.614-1.278-15.74-20.633-.127-.3,0-1.4-.011-3.092-.021-12.018-.074-1.194-.006-.246,0-1.678-.013Z" transform="translate(-490.901 167.485)" fill="#0b57d6"/>
                      </g>
                    </g>
                  </g>
                </g>
              </g>
              <path id="Path_4370-2" data-name="Path 4370" d="M509.888-148.33l1.012-.085,11.681-.952,3.063-.25,1.584-.127.3-.023-2.07-17.481-.3,0-1.4-.011-3.091-.021-12.018-.074-1.194-.006Z" transform="translate(-484.263 167.509)" fill="#ffc106"/>
            </g>
          </g>
        </g>
      </g>
    </g>
  </g>
</svg>
